<?xml version="1.0" standalone="no"?>
<!DOCTYPE svg PUBLIC "-//W3C//DTD SVG 20010904//EN"
 "http://www.w3.org/TR/2001/REC-SVG-20010904/DTD/svg10.dtd">
<svg version="1.0" xmlns="http://www.w3.org/2000/svg"
 width="2580.000000pt" height="1080.000000pt" viewBox="0 0 2580.000000 1080.000000"
 preserveAspectRatio="xMidYMid meet">

<g transform="translate(0.000000,1080.000000) scale(0.100000,-0.100000)"
fill="#000000" stroke="none">
<path d="M14553 10321 c-76 -71 -109 -200 -193 -741 -21 -140 -42 -277 -46
-303 -5 -40 -22 -70 -92 -165 -166 -228 -319 -409 -492 -583 -384 -385 -754
-623 -970 -624 -87 0 -126 22 -163 95 -79 158 -77 428 7 1020 39 274 41 323
21 376 -13 35 -25 49 -51 60 -50 21 -82 4 -210 -117 -137 -129 -273 -253 -283
-257 -4 -1 -15 20 -25 48 -34 94 -145 179 -275 210 -81 19 -212 8 -315 -28
-343 -118 -842 -585 -1527 -1427 -85 -104 -176 -219 -203 -254 l-49 -63 -55 6
c-64 8 -210 54 -280 90 -70 35 -162 107 -230 180 -64 69 -162 218 -162 248 0
10 34 67 75 127 119 173 156 274 135 368 -16 70 -52 108 -144 153 -88 43 -239
90 -290 90 -45 0 -82 -42 -96 -108 -22 -99 21 -368 90 -572 l39 -114 -92 -94
c-258 -263 -386 -379 -582 -526 -457 -343 -982 -618 -1363 -713 -91 -23 -129
-27 -257 -28 -132 0 -158 3 -218 23 -136 48 -238 151 -297 304 -33 85 -74 297
-63 325 4 10 47 80 96 156 183 287 311 531 342 653 16 62 17 78 6 114 -24 82
-95 114 -200 91 -158 -34 -275 -165 -347 -390 -39 -121 -74 -348 -81 -524 l-6
-159 -130 -171 c-257 -340 -413 -535 -586 -732 -337 -384 -633 -683 -875 -882
-50 -41 -100 -82 -111 -91 -67 -56 -284 -190 -388 -241 -202 -99 -326 -132
-496 -132 -118 0 -171 12 -271 59 -131 61 -281 232 -383 437 -127 258 -249
753 -306 1250 -61 520 -73 863 -69 1906 3 985 7 929 -58 929 -68 0 -72 -22
-98 -570 -41 -831 -51 -1575 -27 -1945 56 -876 208 -1482 463 -1852 405 -587
1055 -542 1855 128 430 360 997 1006 1437 1636 32 46 61 85 65 88 5 2 16 -27
25 -65 65 -267 231 -452 471 -526 85 -27 354 -27 475 0 188 41 425 134 677
266 513 270 994 655 1394 1118 l47 54 55 -86 c145 -221 354 -374 604 -442 35
-9 63 -21 63 -25 0 -5 -39 -65 -87 -134 -242 -345 -393 -612 -401 -708 -4 -47
-1 -58 18 -77 40 -40 80 -16 265 160 231 219 574 524 813 721 102 85 106 87
216 119 358 102 738 288 1013 494 357 267 633 647 693 953 12 59 16 66 79 122
143 127 323 273 329 267 3 -4 -15 -116 -41 -249 -60 -311 -74 -402 -88 -580
-32 -405 67 -668 274 -729 55 -16 168 -15 237 2 164 40 396 175 596 347 273
235 499 492 777 884 l39 54 -5 -55 c-3 -30 -22 -176 -41 -325 -38 -286 -66
-552 -90 -828 -8 -93 -17 -171 -19 -174 -3 -2 -65 -17 -138 -34 -147 -32 -136
-29 -694 -160 -1593 -372 -3396 -902 -5190 -1524 -137 -48 -299 -104 -360
-125 -99 -34 -410 -147 -815 -295 -177 -64 -486 -181 -715 -268 -93 -36 -267
-102 -385 -147 -118 -45 -282 -109 -364 -142 -210 -83 -404 -154 -504 -183
-47 -14 -87 -27 -90 -30 -3 -2 1 -11 8 -20 34 -42 200 4 755 210 1913 708
4332 1453 6485 1996 195 50 400 101 455 113 55 13 219 52 365 86 567 132 1160
263 1167 257 2 -3 -1 -81 -7 -174 -6 -92 -14 -449 -17 -792 l-5 -624 -136
-191 c-359 -506 -693 -1041 -962 -1541 -351 -653 -592 -1296 -694 -1855 -46
-253 -59 -419 -53 -679 7 -315 40 -497 132 -725 64 -159 126 -257 225 -356
142 -142 267 -200 451 -208 180 -8 347 39 513 143 562 352 895 1080 967 2110
8 114 10 332 6 665 -5 487 -13 667 -62 1445 -27 413 -59 983 -70 1226 l-6 145
113 155 c280 380 629 804 923 1119 226 243 451 470 474 479 25 10 394 73 741
125 878 133 1856 248 2645 311 1185 94 2310 80 2770 -36 173 -44 255 -87 255
-134 0 -57 -173 -198 -380 -308 -430 -231 -1542 -627 -2540 -906 -487 -137
-667 -194 -694 -222 -18 -16 82 -10 240 16 380 63 1307 323 1932 541 864 301
1372 536 1531 709 116 126 119 264 8 361 -103 90 -347 171 -637 213 -354 50
-472 56 -1200 56 -675 0 -772 -3 -1295 -40 -812 -58 -1838 -178 -2790 -325
-110 -17 -207 -30 -217 -28 -17 3 69 80 311 277 390 317 1010 741 1295 885
124 63 150 86 98 86 -208 0 -1112 -597 -1819 -1201 -55 -48 -114 -90 -130 -93
-15 -3 -134 -24 -263 -46 -415 -72 -1151 -214 -1329 -255 l-23 -6 6 128 c21
390 55 820 101 1273 38 371 40 382 89 489 147 323 182 529 111 660 -48 87
-106 115 -152 72z m116 -195 c9 -51 2 -141 -19 -215 -18 -68 -62 -181 -69
-181 -10 0 29 380 46 448 9 35 31 8 42 -52z m-2834 -915 c88 -39 144 -113 145
-192 0 -33 -8 -42 -98 -121 -376 -327 -533 -462 -1161 -1002 -139 -120 -269
-224 -287 -232 -78 -33 -428 -104 -510 -104 -15 0 20 48 218 297 723 908 1122
1287 1444 1368 80 20 186 14 249 -14z m109 -383 c-15 -49 -95 -197 -146 -270
-195 -282 -465 -502 -848 -692 -157 -77 -304 -140 -320 -134 -6 2 76 76 182
164 106 89 277 233 379 320 102 88 284 242 404 344 120 102 246 208 279 237
68 58 81 63 70 31z m-3030 -148 c90 -23 149 -53 166 -86 18 -32 7 -103 -24
-168 -30 -62 -133 -206 -146 -206 -20 0 -120 373 -120 448 0 39 13 41 124 12z
m-2662 -455 c28 -61 -82 -284 -295 -599 -73 -107 -75 -104 -58 69 35 333 107
488 251 538 65 23 89 21 102 -8z m9426 -545 c-1 -5 -91 -98 -198 -207 -367
-372 -590 -626 -949 -1078 -79 -99 -148 -182 -153 -184 -14 -5 -4 1173 10
1209 9 24 22 28 298 83 159 31 386 75 504 97 118 22 274 50 345 64 157 29 147
28 143 16z m-5538 -293 c-8 -8 -80 -72 -160 -143 -383 -341 -741 -644 -761
-644 -14 0 150 234 465 661 l78 106 126 7 c70 4 145 11 167 15 22 5 53 9 70
10 25 1 27 -1 15 -12z m3944 -1944 c3 -43 8 -134 11 -203 7 -151 17 -316 50
-820 90 -1383 100 -1870 50 -2306 -73 -629 -272 -1108 -587 -1410 -188 -181
-366 -266 -558 -268 -241 -2 -430 165 -540 479 -295 839 100 2231 1102 3890
178 294 448 715 459 715 4 0 10 -35 13 -77z"/>
</g>
</svg>
